<svg width="340" height="39" viewBox="0 0 340 39" fill="none" xmlns="http://www.w3.org/2000/svg">
<rect width="90" height="38" transform="translate(0 0.5)" fill="#65C06E" fill-opacity="0.3"/>
<path d="M25.404 26.324C24.792 26.324 24.282 26.204 23.874 25.964C23.466 25.712 23.112 25.268 22.812 24.632L21.336 21.608C21.156 21.224 20.952 20.912 20.724 20.672C20.508 20.432 20.298 20.288 20.094 20.24C19.95 20.216 19.806 20.204 19.662 20.204C19.518 20.192 19.386 20.186 19.266 20.186C19.182 20.186 19.134 20.222 19.122 20.294C19.11 20.366 19.104 20.438 19.104 20.51L19.122 24.074C19.122 24.326 19.158 24.548 19.23 24.74C19.302 24.932 19.422 25.094 19.59 25.226C19.758 25.346 19.992 25.442 20.292 25.514C20.472 25.55 20.61 25.592 20.706 25.64C20.802 25.688 20.85 25.76 20.85 25.856C20.85 25.928 20.796 25.982 20.688 26.018C20.592 26.066 20.472 26.09 20.328 26.09C19.992 26.09 19.716 26.078 19.5 26.054C19.296 26.03 19.104 26.006 18.924 25.982C18.756 25.958 18.558 25.946 18.33 25.946C18.054 25.946 17.802 25.958 17.574 25.982C17.358 26.006 17.124 26.03 16.872 26.054C16.632 26.078 16.338 26.09 15.99 26.09C15.846 26.09 15.72 26.072 15.612 26.036C15.516 26 15.468 25.94 15.468 25.856C15.468 25.7 15.654 25.586 16.026 25.514C16.482 25.43 16.788 25.298 16.944 25.118C17.112 24.926 17.196 24.62 17.196 24.2V16.082C17.196 15.674 17.112 15.386 16.944 15.218C16.776 15.05 16.458 14.918 15.99 14.822C15.642 14.75 15.468 14.63 15.468 14.462C15.468 14.378 15.51 14.318 15.594 14.282C15.69 14.246 15.804 14.228 15.936 14.228C16.248 14.228 16.524 14.234 16.764 14.246C17.016 14.258 17.256 14.27 17.484 14.282C17.712 14.294 17.958 14.3 18.222 14.3C18.438 14.3 18.636 14.3 18.816 14.3C19.008 14.288 19.212 14.276 19.428 14.264C19.644 14.252 19.902 14.246 20.202 14.246C20.346 14.246 20.454 14.264 20.526 14.3C20.61 14.324 20.652 14.378 20.652 14.462C20.652 14.558 20.61 14.636 20.526 14.696C20.442 14.744 20.31 14.786 20.13 14.822C19.674 14.93 19.386 15.08 19.266 15.272C19.158 15.464 19.104 15.734 19.104 16.082V19.232C19.104 19.352 19.116 19.436 19.14 19.484C19.164 19.532 19.2 19.556 19.248 19.556H19.806C20.346 19.556 20.802 19.376 21.174 19.016C21.558 18.656 21.858 18.2 22.074 17.648L22.74 15.956C22.872 15.62 23.034 15.308 23.226 15.02C23.418 14.732 23.664 14.504 23.964 14.336C24.276 14.156 24.66 14.066 25.116 14.066C25.536 14.066 25.818 14.168 25.962 14.372C26.106 14.564 26.178 14.798 26.178 15.074C26.178 15.362 26.1 15.596 25.944 15.776C25.8 15.944 25.626 16.028 25.422 16.028C25.23 16.028 25.032 15.98 24.828 15.884C24.624 15.776 24.444 15.722 24.288 15.722C24.084 15.722 23.898 15.782 23.73 15.902C23.574 16.01 23.418 16.25 23.262 16.622L22.686 18.044C22.59 18.296 22.476 18.524 22.344 18.728C22.212 18.932 22.074 19.106 21.93 19.25C21.87 19.322 21.846 19.388 21.858 19.448C21.87 19.496 21.894 19.544 21.93 19.592C22.122 19.676 22.278 19.808 22.398 19.988C22.53 20.168 22.704 20.456 22.92 20.852L24.378 23.462C24.63 23.918 24.858 24.284 25.062 24.56C25.266 24.824 25.458 25.016 25.638 25.136C25.83 25.256 26.034 25.34 26.25 25.388C26.478 25.424 26.742 25.442 27.042 25.442C27.114 25.442 27.168 25.466 27.204 25.514C27.252 25.562 27.276 25.616 27.276 25.676C27.276 25.724 27.258 25.772 27.222 25.82C27.186 25.868 27.15 25.904 27.114 25.928C26.982 26.024 26.754 26.114 26.43 26.198C26.106 26.282 25.764 26.324 25.404 26.324ZM27.6163 31.112C27.3523 31.112 27.1063 31.034 26.8783 30.878C26.6503 30.734 26.5363 30.524 26.5363 30.248C26.5363 30.02 26.5903 29.816 26.6983 29.636C26.8063 29.456 26.9683 29.366 27.1843 29.366C27.3403 29.366 27.4903 29.384 27.6343 29.42C27.7903 29.468 27.9283 29.492 28.0483 29.492C28.1683 29.48 28.2583 29.45 28.3183 29.402C28.3783 29.366 28.4383 29.294 28.4983 29.186C28.6183 28.994 28.7443 28.766 28.8763 28.502C29.0203 28.25 29.1703 27.956 29.3263 27.62C29.4823 27.284 29.6443 26.906 29.8123 26.486C29.8843 26.306 29.9203 26.114 29.9203 25.91C29.9203 25.79 29.9083 25.676 29.8843 25.568C29.8603 25.46 29.8243 25.352 29.7763 25.244L27.6523 20.06C27.5563 19.832 27.4423 19.634 27.3103 19.466C27.1783 19.298 27.0103 19.184 26.8063 19.124C26.7103 19.076 26.6203 19.028 26.5363 18.98C26.4643 18.932 26.4283 18.86 26.4283 18.764C26.4283 18.692 26.4763 18.65 26.5723 18.638C26.6683 18.614 26.7463 18.602 26.8063 18.602C27.0703 18.602 27.2743 18.608 27.4183 18.62C27.5623 18.632 27.6943 18.644 27.8143 18.656C27.9343 18.668 28.0903 18.674 28.2823 18.674C28.5103 18.674 28.6903 18.668 28.8223 18.656C28.9543 18.644 29.0923 18.632 29.2363 18.62C29.3923 18.608 29.5963 18.602 29.8483 18.602C29.9323 18.602 30.0163 18.62 30.1003 18.656C30.1843 18.68 30.2263 18.728 30.2263 18.8C30.2263 18.896 30.1723 18.98 30.0643 19.052C29.9563 19.112 29.8543 19.16 29.7583 19.196C29.6263 19.232 29.5243 19.298 29.4523 19.394C29.3923 19.478 29.3623 19.616 29.3623 19.808C29.3623 19.892 29.3803 19.988 29.4163 20.096C29.4523 20.204 29.4943 20.312 29.5423 20.42L30.8743 23.714C30.8983 23.774 30.9283 23.804 30.9643 23.804C30.9883 23.804 31.0123 23.774 31.0363 23.714L32.1703 20.6C32.2063 20.516 32.2363 20.408 32.2603 20.276C32.2843 20.132 32.2963 20.012 32.2963 19.916C32.2963 19.7 32.2543 19.544 32.1703 19.448C32.0863 19.34 31.9903 19.262 31.8823 19.214C31.7863 19.166 31.6783 19.112 31.5583 19.052C31.4503 18.98 31.3963 18.896 31.3963 18.8C31.3963 18.728 31.4383 18.68 31.5223 18.656C31.6183 18.62 31.7023 18.602 31.7743 18.602C31.9903 18.602 32.1883 18.614 32.3683 18.638C32.5483 18.662 32.7763 18.674 33.0523 18.674C33.2443 18.674 33.3943 18.668 33.5023 18.656C33.6103 18.644 33.7123 18.632 33.8083 18.62C33.9043 18.608 34.0303 18.602 34.1863 18.602C34.2463 18.602 34.3243 18.614 34.4203 18.638C34.5163 18.65 34.5643 18.692 34.5643 18.764C34.5643 18.86 34.5223 18.932 34.4383 18.98C34.3663 19.028 34.2823 19.076 34.1863 19.124C33.9943 19.184 33.7963 19.322 33.5923 19.538C33.4003 19.754 33.2443 20.006 33.1243 20.294L30.5863 26.342C30.5503 26.45 30.4723 26.642 30.3523 26.918C30.2443 27.194 30.1123 27.518 29.9563 27.89C29.8003 28.262 29.6323 28.652 29.4523 29.06C29.2843 29.48 29.1163 29.882 28.9483 30.266C28.8283 30.542 28.6483 30.752 28.4083 30.896C28.1803 31.04 27.9163 31.112 27.6163 31.112ZM38.8506 26.27C38.0226 26.27 37.3386 26.054 36.7986 25.622C36.2706 25.19 35.8746 24.614 35.6106 23.894C35.3466 23.162 35.2086 22.358 35.1966 21.482C35.1966 20.21 35.3466 19.064 35.6466 18.044C35.9466 17.024 36.4206 16.178 37.0686 15.506C37.7286 14.834 38.5806 14.402 39.6246 14.21L40.5246 14.048C40.8846 13.988 41.1666 13.922 41.3706 13.85C41.5866 13.778 41.7606 13.706 41.8926 13.634C42.0246 13.55 42.1506 13.46 42.2706 13.364C42.2826 13.352 42.3066 13.346 42.3426 13.346C42.3906 13.346 42.4206 13.376 42.4326 13.436C42.4566 13.484 42.4686 13.526 42.4686 13.562C42.4686 13.85 42.4086 14.15 42.2886 14.462C42.1686 14.762 41.9706 15.026 41.6946 15.254C41.4306 15.482 41.0766 15.638 40.6326 15.722L38.4546 16.118C38.0106 16.202 37.6386 16.352 37.3386 16.568C37.0506 16.784 36.8406 17.096 36.7086 17.504C36.5766 17.912 36.5286 18.452 36.5646 19.124C36.5766 19.22 36.6126 19.274 36.6726 19.286C36.7446 19.298 36.8226 19.274 36.9066 19.214C37.1466 19.01 37.4466 18.836 37.8066 18.692C38.1786 18.548 38.6406 18.476 39.1926 18.476C39.9486 18.476 40.5786 18.656 41.0826 19.016C41.5866 19.364 41.9646 19.814 42.2166 20.366C42.4686 20.918 42.5946 21.5 42.5946 22.112C42.5946 22.82 42.4566 23.492 42.1806 24.128C41.9046 24.764 41.4906 25.28 40.9386 25.676C40.3866 26.072 39.6906 26.27 38.8506 26.27ZM38.9766 25.604C39.4446 25.604 39.8046 25.472 40.0566 25.208C40.3206 24.932 40.5006 24.554 40.5966 24.074C40.7046 23.594 40.7586 23.042 40.7586 22.418C40.7586 21.866 40.6806 21.338 40.5246 20.834C40.3686 20.33 40.1466 19.916 39.8586 19.592C39.5706 19.268 39.2286 19.106 38.8326 19.106C38.5446 19.106 38.2686 19.166 38.0046 19.286C37.7526 19.394 37.5486 19.562 37.3926 19.79C37.2246 20.03 37.1106 20.33 37.0506 20.69C37.0026 21.05 36.9786 21.476 36.9786 21.968C36.9906 22.64 37.0746 23.252 37.2306 23.804C37.3866 24.356 37.6146 24.794 37.9146 25.118C38.2146 25.442 38.5686 25.604 38.9766 25.604ZM43.9697 26.054C43.8977 26.054 43.8197 26.042 43.7357 26.018C43.6517 25.994 43.6097 25.94 43.6097 25.856C43.6097 25.76 43.6517 25.688 43.7357 25.64C43.8317 25.592 43.9277 25.55 44.0237 25.514C44.2037 25.454 44.3657 25.388 44.5097 25.316C44.6657 25.232 44.7437 25.07 44.7437 24.83V19.844C44.7437 19.604 44.6717 19.442 44.5277 19.358C44.3957 19.262 44.2397 19.19 44.0597 19.142C43.9637 19.106 43.8677 19.064 43.7717 19.016C43.6877 18.968 43.6457 18.896 43.6457 18.8C43.6457 18.728 43.6877 18.68 43.7717 18.656C43.8677 18.632 43.9457 18.62 44.0057 18.62C44.2457 18.62 44.4437 18.626 44.5997 18.638C44.7677 18.65 44.9237 18.668 45.0677 18.692C45.2117 18.704 45.3857 18.71 45.5897 18.71C45.8057 18.71 45.9797 18.704 46.1117 18.692C46.2437 18.668 46.3817 18.65 46.5257 18.638C46.6817 18.626 46.8797 18.62 47.1197 18.62C47.1797 18.62 47.2517 18.632 47.3357 18.656C47.4197 18.68 47.4617 18.728 47.4617 18.8C47.4617 18.884 47.4197 18.956 47.3357 19.016C47.2517 19.064 47.1617 19.106 47.0657 19.142C46.8857 19.202 46.7297 19.274 46.5977 19.358C46.4657 19.442 46.3997 19.604 46.3997 19.844V23.246C46.3997 23.318 46.4237 23.366 46.4717 23.39C46.5197 23.414 46.5617 23.408 46.5977 23.372L49.7117 20.042C49.7477 19.994 49.7717 19.958 49.7837 19.934C49.8077 19.91 49.8197 19.868 49.8197 19.808C49.8197 19.568 49.7597 19.412 49.6397 19.34C49.5317 19.256 49.3877 19.19 49.2077 19.142C49.1117 19.106 49.0217 19.064 48.9377 19.016C48.8537 18.968 48.8117 18.896 48.8117 18.8C48.8117 18.728 48.8477 18.68 48.9197 18.656C49.0037 18.632 49.0817 18.62 49.1537 18.62C49.3937 18.62 49.5857 18.626 49.7297 18.638C49.8857 18.65 50.0297 18.668 50.1617 18.692C50.3057 18.704 50.4797 18.71 50.6837 18.71C50.8997 18.71 51.0737 18.704 51.2057 18.692C51.3497 18.668 51.4997 18.65 51.6557 18.638C51.8117 18.626 52.0097 18.62 52.2497 18.62C52.3217 18.62 52.3937 18.632 52.4657 18.656C52.5497 18.68 52.5917 18.728 52.5917 18.8C52.5917 18.896 52.5497 18.968 52.4657 19.016C52.3817 19.064 52.2917 19.106 52.1957 19.142C52.0157 19.19 51.8477 19.262 51.6917 19.358C51.5477 19.442 51.4757 19.604 51.4757 19.844V24.83C51.4757 25.07 51.5537 25.232 51.7097 25.316C51.8777 25.388 52.0517 25.454 52.2317 25.514C52.3277 25.55 52.4177 25.592 52.5017 25.64C52.5857 25.688 52.6277 25.76 52.6277 25.856C52.6277 25.94 52.5857 25.994 52.5017 26.018C52.4177 26.042 52.3457 26.054 52.2857 26.054C52.0457 26.054 51.8417 26.042 51.6737 26.018C51.5177 26.006 51.3617 25.994 51.2057 25.982C51.0617 25.97 50.8817 25.964 50.6657 25.964C50.4617 25.964 50.2817 25.97 50.1257 25.982C49.9817 25.994 49.8257 26.006 49.6577 26.018C49.5017 26.042 49.3037 26.054 49.0637 26.054C49.0037 26.054 48.9317 26.042 48.8477 26.018C48.7637 25.994 48.7217 25.94 48.7217 25.856C48.7217 25.76 48.7637 25.688 48.8477 25.64C48.9317 25.592 49.0217 25.55 49.1177 25.514C49.2977 25.454 49.4597 25.388 49.6037 25.316C49.7477 25.232 49.8197 25.07 49.8197 24.83V21.122C49.8197 21.062 49.8077 21.026 49.7837 21.014C49.7717 20.99 49.7537 20.996 49.7297 21.032L46.5077 24.524C46.4357 24.596 46.3997 24.698 46.3997 24.83C46.3997 25.082 46.4777 25.244 46.6337 25.316C46.7897 25.388 46.9577 25.454 47.1377 25.514C47.2337 25.55 47.3237 25.592 47.4077 25.64C47.4917 25.688 47.5337 25.76 47.5337 25.856C47.5337 25.928 47.4917 25.976 47.4077 26C47.3237 26.036 47.2517 26.054 47.1917 26.054C46.9517 26.054 46.7477 26.042 46.5797 26.018C46.4237 26.006 46.2737 25.994 46.1297 25.982C45.9857 25.97 45.8057 25.964 45.5897 25.964C45.3857 25.964 45.2057 25.97 45.0497 25.982C44.8937 25.994 44.7317 26.006 44.5637 26.018C44.4077 26.042 44.2097 26.054 43.9697 26.054ZM60.8686 26.252C60.5206 26.252 60.2206 26.204 59.9686 26.108C59.7286 26.012 59.5066 25.862 59.3026 25.658C59.0986 25.454 58.8946 25.202 58.6906 24.902C58.4986 24.59 58.2826 24.224 58.0426 23.804C57.8506 23.492 57.6886 23.228 57.5566 23.012C57.4246 22.796 57.2806 22.628 57.1246 22.508C56.9686 22.376 56.7466 22.31 56.4586 22.31C56.3386 22.31 56.2786 22.364 56.2786 22.472V24.848C56.2786 25.076 56.3566 25.232 56.5126 25.316C56.6806 25.388 56.8786 25.46 57.1066 25.532C57.2026 25.568 57.2866 25.61 57.3586 25.658C57.4426 25.694 57.4846 25.76 57.4846 25.856C57.4846 25.94 57.4366 25.994 57.3406 26.018C57.2446 26.042 57.1726 26.054 57.1246 26.054C56.8966 26.054 56.6926 26.042 56.5126 26.018C56.3446 26.006 56.1826 25.994 56.0266 25.982C55.8706 25.97 55.6846 25.964 55.4686 25.964C55.2646 25.964 55.0846 25.97 54.9286 25.982C54.7726 25.994 54.6106 26.006 54.4426 26.018C54.2866 26.042 54.0886 26.054 53.8486 26.054C53.7886 26.054 53.7106 26.042 53.6146 26.018C53.5186 25.994 53.4706 25.946 53.4706 25.874C53.4706 25.778 53.5066 25.706 53.5786 25.658C53.6626 25.61 53.7526 25.568 53.8486 25.532C54.0766 25.46 54.2686 25.394 54.4246 25.334C54.5806 25.274 54.6586 25.124 54.6586 24.884V19.916C54.6586 19.676 54.5926 19.496 54.4606 19.376C54.3286 19.256 54.1486 19.166 53.9206 19.106C53.8246 19.082 53.7346 19.046 53.6506 18.998C53.5786 18.938 53.5426 18.866 53.5426 18.782C53.5426 18.686 53.5906 18.632 53.6866 18.62C53.7826 18.596 53.8606 18.584 53.9206 18.584C54.1606 18.584 54.3526 18.59 54.4966 18.602C54.6406 18.614 54.7846 18.632 54.9286 18.656C55.0726 18.668 55.2466 18.674 55.4506 18.674C55.6666 18.674 55.8406 18.668 55.9726 18.656C56.1166 18.644 56.2666 18.632 56.4226 18.62C56.5906 18.608 56.7886 18.602 57.0166 18.602C57.0766 18.602 57.1546 18.608 57.2506 18.62C57.3466 18.632 57.3946 18.686 57.3946 18.782C57.3946 18.866 57.3526 18.932 57.2686 18.98C57.1846 19.028 57.0946 19.07 56.9986 19.106C56.7706 19.178 56.5906 19.28 56.4586 19.412C56.3386 19.532 56.2786 19.712 56.2786 19.952V21.626C56.2786 21.686 56.2966 21.734 56.3326 21.77C56.3806 21.794 56.4346 21.806 56.4946 21.806C57.0706 21.806 57.5086 21.668 57.8086 21.392C58.1206 21.104 58.3786 20.78 58.5826 20.42C58.7266 20.18 58.8586 19.94 58.9786 19.7C59.0986 19.448 59.2306 19.22 59.3746 19.016C59.5186 18.812 59.6926 18.65 59.8966 18.53C60.1126 18.41 60.3766 18.35 60.6886 18.35C61.0006 18.35 61.2346 18.434 61.3906 18.602C61.5586 18.77 61.6426 18.968 61.6426 19.196C61.6426 19.424 61.5886 19.61 61.4806 19.754C61.3726 19.886 61.2346 19.952 61.0666 19.952C60.9226 19.952 60.7546 19.91 60.5626 19.826C60.3826 19.73 60.2266 19.682 60.0946 19.682C59.9386 19.682 59.8186 19.718 59.7346 19.79C59.6626 19.862 59.5786 19.97 59.4826 20.114C59.4226 20.21 59.3446 20.354 59.2486 20.546C59.1526 20.726 59.0446 20.912 58.9246 21.104C58.8166 21.284 58.6906 21.434 58.5466 21.554C58.4986 21.602 58.4806 21.638 58.4926 21.662C58.5046 21.674 58.5226 21.704 58.5466 21.752C58.7626 22.1 58.9726 22.454 59.1766 22.814C59.3806 23.174 59.5846 23.522 59.7886 23.858C60.0406 24.242 60.3046 24.578 60.5806 24.866C60.8566 25.154 61.1506 25.352 61.4626 25.46C61.6066 25.496 61.7206 25.544 61.8046 25.604C61.8886 25.664 61.9306 25.748 61.9306 25.856C61.9306 25.952 61.8286 26.042 61.6246 26.126C61.4326 26.21 61.1806 26.252 60.8686 26.252ZM67.939 26.054C67.867 26.054 67.801 26.03 67.741 25.982C67.693 25.934 67.669 25.88 67.669 25.82C67.669 25.688 67.765 25.598 67.957 25.55C68.365 25.43 68.707 25.328 68.983 25.244C69.259 25.148 69.463 25.016 69.595 24.848C69.739 24.668 69.811 24.416 69.811 24.092V17.342C69.811 17.102 69.739 16.916 69.595 16.784C69.451 16.652 69.259 16.562 69.019 16.514C68.791 16.454 68.545 16.412 68.281 16.388C68.173 16.376 68.065 16.346 67.957 16.298C67.861 16.238 67.813 16.154 67.813 16.046C67.813 15.938 67.861 15.854 67.957 15.794C68.053 15.722 68.167 15.68 68.299 15.668C68.899 15.596 69.433 15.494 69.901 15.362C70.381 15.218 70.855 14.954 71.323 14.57C71.335 14.558 71.353 14.552 71.377 14.552C71.401 14.54 71.425 14.534 71.449 14.534C71.521 14.534 71.581 14.552 71.629 14.588C71.689 14.624 71.719 14.666 71.719 14.714C71.695 14.882 71.671 15.068 71.647 15.272C71.635 15.476 71.629 15.716 71.629 15.992V24.254C71.629 24.53 71.689 24.746 71.809 24.902C71.941 25.046 72.139 25.166 72.403 25.262C72.679 25.346 73.039 25.442 73.483 25.55C73.567 25.574 73.639 25.61 73.699 25.658C73.759 25.694 73.789 25.754 73.789 25.838C73.789 25.982 73.705 26.054 73.537 26.054C73.225 26.054 72.907 26.042 72.583 26.018C72.271 26.006 71.959 25.994 71.647 25.982C71.347 25.97 71.047 25.964 70.747 25.964C70.447 25.964 70.141 25.97 69.829 25.982C69.517 25.994 69.199 26.006 68.875 26.018C68.563 26.042 68.251 26.054 67.939 26.054Z" fill="black"/>
<path d="M128.03 20.0303C128.323 19.7374 128.323 19.2626 128.03 18.9697L123.257 14.1967C122.964 13.9038 122.49 13.9038 122.197 14.1967C121.904 14.4896 121.904 14.9645 122.197 15.2574L126.439 19.5L122.197 23.7426C121.904 24.0355 121.904 24.5104 122.197 24.8033C122.49 25.0962 122.964 25.0962 123.257 24.8033L128.03 20.0303ZM97.5 19.5V20.25H127.5V19.5V18.75H97.5V19.5Z" fill="black"/>
<rect width="70" height="38" transform="translate(135 0.5)" fill="#65C06E" fill-opacity="0.3"/>
<path d="M157.308 26.27C156.444 26.27 155.61 26.126 154.806 25.838C154.014 25.55 153.312 25.142 152.7 24.614C152.088 24.086 151.602 23.45 151.242 22.706C150.894 21.962 150.72 21.134 150.72 20.222C150.72 19.37 150.9 18.572 151.26 17.828C151.62 17.072 152.118 16.418 152.754 15.866C153.402 15.302 154.152 14.864 155.004 14.552C155.856 14.228 156.78 14.066 157.776 14.066C158.22 14.066 158.616 14.09 158.964 14.138C159.312 14.174 159.648 14.228 159.972 14.3C160.296 14.372 160.644 14.468 161.016 14.588C161.172 14.636 161.286 14.702 161.358 14.786C161.442 14.87 161.49 14.996 161.502 15.164C161.538 15.476 161.568 15.8 161.592 16.136C161.628 16.472 161.652 16.844 161.664 17.252C161.664 17.36 161.616 17.438 161.52 17.486C161.436 17.534 161.34 17.546 161.232 17.522C161.124 17.486 161.052 17.402 161.016 17.27C160.908 16.874 160.782 16.52 160.638 16.208C160.494 15.896 160.284 15.638 160.008 15.434C159.732 15.218 159.378 15.05 158.946 14.93C158.526 14.81 158.052 14.75 157.524 14.75C156.852 14.75 156.234 14.888 155.67 15.164C155.106 15.44 154.626 15.818 154.23 16.298C153.834 16.766 153.522 17.3 153.294 17.9C153.078 18.5 152.97 19.124 152.97 19.772C152.97 20.528 153.072 21.254 153.276 21.95C153.492 22.646 153.798 23.264 154.194 23.804C154.602 24.344 155.094 24.776 155.67 25.1C156.246 25.412 156.894 25.568 157.614 25.568C158.478 25.568 159.192 25.376 159.756 24.992C160.32 24.596 160.794 24.032 161.178 23.3C161.262 23.132 161.388 23.048 161.556 23.048C161.724 23.048 161.808 23.144 161.808 23.336C161.808 23.456 161.784 23.624 161.736 23.84C161.7 24.044 161.646 24.272 161.574 24.524C161.502 24.764 161.43 24.986 161.358 25.19C161.286 25.346 161.22 25.454 161.16 25.514C161.1 25.574 160.986 25.634 160.818 25.694C160.362 25.886 159.822 26.03 159.198 26.126C158.586 26.222 157.956 26.27 157.308 26.27ZM163.9 31.112C163.636 31.112 163.39 31.034 163.162 30.878C162.934 30.734 162.82 30.524 162.82 30.248C162.82 30.02 162.874 29.816 162.982 29.636C163.09 29.456 163.252 29.366 163.468 29.366C163.624 29.366 163.774 29.384 163.918 29.42C164.074 29.468 164.212 29.492 164.332 29.492C164.452 29.48 164.542 29.45 164.602 29.402C164.662 29.366 164.722 29.294 164.782 29.186C164.902 28.994 165.028 28.766 165.16 28.502C165.304 28.25 165.454 27.956 165.61 27.62C165.766 27.284 165.928 26.906 166.096 26.486C166.168 26.306 166.204 26.114 166.204 25.91C166.204 25.79 166.192 25.676 166.168 25.568C166.144 25.46 166.108 25.352 166.06 25.244L163.936 20.06C163.84 19.832 163.726 19.634 163.594 19.466C163.462 19.298 163.294 19.184 163.09 19.124C162.994 19.076 162.904 19.028 162.82 18.98C162.748 18.932 162.712 18.86 162.712 18.764C162.712 18.692 162.76 18.65 162.856 18.638C162.952 18.614 163.03 18.602 163.09 18.602C163.354 18.602 163.558 18.608 163.702 18.62C163.846 18.632 163.978 18.644 164.098 18.656C164.218 18.668 164.374 18.674 164.566 18.674C164.794 18.674 164.974 18.668 165.106 18.656C165.238 18.644 165.376 18.632 165.52 18.62C165.676 18.608 165.88 18.602 166.132 18.602C166.216 18.602 166.3 18.62 166.384 18.656C166.468 18.68 166.51 18.728 166.51 18.8C166.51 18.896 166.456 18.98 166.348 19.052C166.24 19.112 166.138 19.16 166.042 19.196C165.91 19.232 165.808 19.298 165.736 19.394C165.676 19.478 165.646 19.616 165.646 19.808C165.646 19.892 165.664 19.988 165.7 20.096C165.736 20.204 165.778 20.312 165.826 20.42L167.158 23.714C167.182 23.774 167.212 23.804 167.248 23.804C167.272 23.804 167.296 23.774 167.32 23.714L168.454 20.6C168.49 20.516 168.52 20.408 168.544 20.276C168.568 20.132 168.58 20.012 168.58 19.916C168.58 19.7 168.538 19.544 168.454 19.448C168.37 19.34 168.274 19.262 168.166 19.214C168.07 19.166 167.962 19.112 167.842 19.052C167.734 18.98 167.68 18.896 167.68 18.8C167.68 18.728 167.722 18.68 167.806 18.656C167.902 18.62 167.986 18.602 168.058 18.602C168.274 18.602 168.472 18.614 168.652 18.638C168.832 18.662 169.06 18.674 169.336 18.674C169.528 18.674 169.678 18.668 169.786 18.656C169.894 18.644 169.996 18.632 170.092 18.62C170.188 18.608 170.314 18.602 170.47 18.602C170.53 18.602 170.608 18.614 170.704 18.638C170.8 18.65 170.848 18.692 170.848 18.764C170.848 18.86 170.806 18.932 170.722 18.98C170.65 19.028 170.566 19.076 170.47 19.124C170.278 19.184 170.08 19.322 169.876 19.538C169.684 19.754 169.528 20.006 169.408 20.294L166.87 26.342C166.834 26.45 166.756 26.642 166.636 26.918C166.528 27.194 166.396 27.518 166.24 27.89C166.084 28.262 165.916 28.652 165.736 29.06C165.568 29.48 165.4 29.882 165.232 30.266C165.112 30.542 164.932 30.752 164.692 30.896C164.464 31.04 164.2 31.112 163.9 31.112ZM176.304 26.27C176.136 26.27 175.998 26.156 175.89 25.928L173.55 20.726C173.502 20.642 173.46 20.606 173.424 20.618C173.4 20.618 173.376 20.666 173.352 20.762C173.34 20.846 173.322 21.026 173.298 21.302C173.274 21.566 173.25 21.878 173.226 22.238C173.202 22.586 173.178 22.94 173.154 23.3C173.13 23.66 173.112 23.978 173.1 24.254C173.088 24.53 173.082 24.71 173.082 24.794C173.082 25.07 173.148 25.25 173.28 25.334C173.424 25.418 173.616 25.496 173.856 25.568C173.94 25.592 174.024 25.628 174.108 25.676C174.204 25.712 174.252 25.778 174.252 25.874C174.252 25.946 174.21 25.988 174.126 26C174.042 26.024 173.97 26.036 173.91 26.036C173.67 26.036 173.49 26.03 173.37 26.018C173.25 26.006 173.136 25.994 173.028 25.982C172.92 25.97 172.764 25.964 172.56 25.964C172.356 25.964 172.188 25.97 172.056 25.982C171.936 25.994 171.822 26.006 171.714 26.018C171.618 26.03 171.492 26.036 171.336 26.036C171.264 26.036 171.186 26.024 171.102 26C171.03 25.976 170.994 25.928 170.994 25.856C170.994 25.772 171.042 25.712 171.138 25.676C171.246 25.64 171.342 25.604 171.426 25.568C171.618 25.496 171.792 25.418 171.948 25.334C172.116 25.238 172.212 25.07 172.236 24.83L172.758 20.132C172.782 19.808 172.716 19.568 172.56 19.412C172.404 19.244 172.188 19.13 171.912 19.07C171.804 19.046 171.702 19.01 171.606 18.962C171.522 18.902 171.48 18.83 171.48 18.746C171.48 18.674 171.522 18.632 171.606 18.62C171.702 18.596 171.78 18.584 171.84 18.584C171.936 18.584 172.068 18.59 172.236 18.602C172.404 18.614 172.572 18.626 172.74 18.638C172.92 18.65 173.064 18.656 173.172 18.656C173.256 18.656 173.382 18.656 173.55 18.656C173.718 18.644 173.862 18.638 173.982 18.638C174.042 18.638 174.096 18.668 174.144 18.728C174.192 18.776 174.222 18.818 174.234 18.854L176.628 23.75C176.676 23.858 176.718 23.918 176.754 23.93C176.802 23.93 176.85 23.882 176.898 23.786L178.752 19.664C178.836 19.448 178.92 19.232 179.004 19.016C179.088 18.8 179.172 18.692 179.256 18.692H179.85C180.174 18.692 180.498 18.674 180.822 18.638C181.158 18.602 181.38 18.584 181.488 18.584C181.572 18.584 181.65 18.596 181.722 18.62C181.806 18.644 181.848 18.692 181.848 18.764C181.848 18.848 181.806 18.914 181.722 18.962C181.638 18.998 181.554 19.028 181.47 19.052C181.254 19.112 181.056 19.208 180.876 19.34C180.696 19.472 180.612 19.676 180.624 19.952C180.636 20.468 180.648 20.924 180.66 21.32C180.684 21.704 180.708 22.07 180.732 22.418C180.756 22.766 180.78 23.132 180.804 23.516C180.84 23.9 180.87 24.344 180.894 24.848C180.906 25.076 180.996 25.238 181.164 25.334C181.344 25.418 181.53 25.496 181.722 25.568C181.806 25.592 181.89 25.628 181.974 25.676C182.058 25.712 182.1 25.778 182.1 25.874C182.1 25.946 182.058 25.988 181.974 26C181.902 26.024 181.836 26.036 181.776 26.036C181.56 26.036 181.356 26.03 181.164 26.018C180.984 26.006 180.804 25.994 180.624 25.982C180.456 25.97 180.27 25.964 180.066 25.964C179.862 25.964 179.676 25.97 179.508 25.982C179.34 25.994 179.166 26.006 178.986 26.018C178.818 26.03 178.62 26.036 178.392 26.036C178.332 26.036 178.26 26.024 178.176 26C178.104 25.988 178.068 25.946 178.068 25.874C178.068 25.778 178.104 25.712 178.176 25.676C178.26 25.628 178.344 25.592 178.428 25.568C178.668 25.496 178.86 25.424 179.004 25.352C179.148 25.268 179.22 25.106 179.22 24.866C179.208 24.386 179.19 23.78 179.166 23.048C179.142 22.316 179.106 21.572 179.058 20.816C179.058 20.708 179.034 20.666 178.986 20.69C178.95 20.702 178.908 20.756 178.86 20.852L176.646 25.946C176.55 26.162 176.436 26.27 176.304 26.27ZM184.487 26.252C184.235 26.252 183.989 26.168 183.749 26C183.509 25.844 183.311 25.646 183.155 25.406C182.999 25.154 182.921 24.908 182.921 24.668C182.921 24.272 183.029 23.954 183.245 23.714C183.473 23.474 183.821 23.258 184.289 23.066L186.035 22.328C186.275 22.232 186.419 22.148 186.467 22.076C186.515 21.992 186.545 21.83 186.557 21.59L186.593 20.492C186.605 20.168 186.527 19.898 186.359 19.682C186.191 19.466 185.945 19.358 185.621 19.358C185.453 19.358 185.279 19.394 185.099 19.466C184.931 19.526 184.793 19.598 184.685 19.682C184.625 19.73 184.583 19.796 184.559 19.88C184.547 19.964 184.541 20.054 184.541 20.15C184.541 20.21 184.541 20.282 184.541 20.366C184.553 20.438 184.559 20.498 184.559 20.546C184.559 20.618 184.475 20.708 184.307 20.816C184.151 20.912 183.965 21.002 183.749 21.086C183.545 21.17 183.371 21.212 183.227 21.212C183.155 21.212 183.095 21.194 183.047 21.158C183.011 21.11 182.993 21.05 182.993 20.978C182.993 20.786 183.053 20.588 183.173 20.384C183.305 20.168 183.497 19.952 183.749 19.736C184.037 19.484 184.349 19.262 184.685 19.07C185.033 18.866 185.369 18.71 185.693 18.602C186.029 18.494 186.323 18.44 186.575 18.44C187.079 18.44 187.487 18.614 187.799 18.962C188.123 19.298 188.273 19.736 188.249 20.276L188.159 24.344C188.147 24.608 188.201 24.824 188.321 24.992C188.441 25.16 188.591 25.244 188.771 25.244C189.047 25.244 189.263 25.172 189.419 25.028C189.467 24.98 189.509 24.956 189.545 24.956C189.605 24.956 189.653 24.974 189.689 25.01C189.737 25.046 189.761 25.094 189.761 25.154C189.761 25.298 189.677 25.448 189.509 25.604C189.305 25.808 189.083 25.964 188.843 26.072C188.615 26.192 188.393 26.252 188.177 26.252C187.577 26.252 187.097 25.928 186.737 25.28H186.683C186.287 25.616 185.915 25.862 185.567 26.018C185.219 26.174 184.859 26.252 184.487 26.252ZM185.423 25.28C185.627 25.28 185.795 25.25 185.927 25.19C186.071 25.118 186.197 25.022 186.305 24.902C186.365 24.842 186.407 24.77 186.431 24.686C186.467 24.59 186.491 24.446 186.503 24.254L186.539 23.228C186.551 23.108 186.545 23.024 186.521 22.976C186.497 22.916 186.449 22.886 186.377 22.886C186.353 22.886 186.317 22.892 186.269 22.904C186.221 22.916 186.155 22.94 186.071 22.976C185.531 23.18 185.153 23.396 184.937 23.624C184.721 23.84 184.613 24.08 184.613 24.344C184.613 24.668 184.697 24.908 184.865 25.064C185.045 25.208 185.231 25.28 185.423 25.28Z" fill="black"/>
<path d="M211.97 20.0303C211.677 19.7374 211.677 19.2626 211.97 18.9697L216.743 14.1967C217.036 13.9038 217.51 13.9038 217.803 14.1967C218.096 14.4896 218.096 14.9645 217.803 15.2574L213.561 19.5L217.803 23.7426C218.096 24.0355 218.096 24.5104 217.803 24.8033C217.51 25.0962 217.036 25.0962 216.743 24.8033L211.97 20.0303ZM242.5 19.5V20.25H212.5V19.5V18.75H242.5V19.5Z" fill="black"/>
<rect width="90" height="38" transform="translate(250 0.5)" fill="#65C06E" fill-opacity="0.3"/>
<path d="M275.404 26.324C274.792 26.324 274.282 26.204 273.874 25.964C273.466 25.712 273.112 25.268 272.812 24.632L271.336 21.608C271.156 21.224 270.952 20.912 270.724 20.672C270.508 20.432 270.298 20.288 270.094 20.24C269.95 20.216 269.806 20.204 269.662 20.204C269.518 20.192 269.386 20.186 269.266 20.186C269.182 20.186 269.134 20.222 269.122 20.294C269.11 20.366 269.104 20.438 269.104 20.51L269.122 24.074C269.122 24.326 269.158 24.548 269.23 24.74C269.302 24.932 269.422 25.094 269.59 25.226C269.758 25.346 269.992 25.442 270.292 25.514C270.472 25.55 270.61 25.592 270.706 25.64C270.802 25.688 270.85 25.76 270.85 25.856C270.85 25.928 270.796 25.982 270.688 26.018C270.592 26.066 270.472 26.09 270.328 26.09C269.992 26.09 269.716 26.078 269.5 26.054C269.296 26.03 269.104 26.006 268.924 25.982C268.756 25.958 268.558 25.946 268.33 25.946C268.054 25.946 267.802 25.958 267.574 25.982C267.358 26.006 267.124 26.03 266.872 26.054C266.632 26.078 266.338 26.09 265.99 26.09C265.846 26.09 265.72 26.072 265.612 26.036C265.516 26 265.468 25.94 265.468 25.856C265.468 25.7 265.654 25.586 266.026 25.514C266.482 25.43 266.788 25.298 266.944 25.118C267.112 24.926 267.196 24.62 267.196 24.2V16.082C267.196 15.674 267.112 15.386 266.944 15.218C266.776 15.05 266.458 14.918 265.99 14.822C265.642 14.75 265.468 14.63 265.468 14.462C265.468 14.378 265.51 14.318 265.594 14.282C265.69 14.246 265.804 14.228 265.936 14.228C266.248 14.228 266.524 14.234 266.764 14.246C267.016 14.258 267.256 14.27 267.484 14.282C267.712 14.294 267.958 14.3 268.222 14.3C268.438 14.3 268.636 14.3 268.816 14.3C269.008 14.288 269.212 14.276 269.428 14.264C269.644 14.252 269.902 14.246 270.202 14.246C270.346 14.246 270.454 14.264 270.526 14.3C270.61 14.324 270.652 14.378 270.652 14.462C270.652 14.558 270.61 14.636 270.526 14.696C270.442 14.744 270.31 14.786 270.13 14.822C269.674 14.93 269.386 15.08 269.266 15.272C269.158 15.464 269.104 15.734 269.104 16.082V19.232C269.104 19.352 269.116 19.436 269.14 19.484C269.164 19.532 269.2 19.556 269.248 19.556H269.806C270.346 19.556 270.802 19.376 271.174 19.016C271.558 18.656 271.858 18.2 272.074 17.648L272.74 15.956C272.872 15.62 273.034 15.308 273.226 15.02C273.418 14.732 273.664 14.504 273.964 14.336C274.276 14.156 274.66 14.066 275.116 14.066C275.536 14.066 275.818 14.168 275.962 14.372C276.106 14.564 276.178 14.798 276.178 15.074C276.178 15.362 276.1 15.596 275.944 15.776C275.8 15.944 275.626 16.028 275.422 16.028C275.23 16.028 275.032 15.98 274.828 15.884C274.624 15.776 274.444 15.722 274.288 15.722C274.084 15.722 273.898 15.782 273.73 15.902C273.574 16.01 273.418 16.25 273.262 16.622L272.686 18.044C272.59 18.296 272.476 18.524 272.344 18.728C272.212 18.932 272.074 19.106 271.93 19.25C271.87 19.322 271.846 19.388 271.858 19.448C271.87 19.496 271.894 19.544 271.93 19.592C272.122 19.676 272.278 19.808 272.398 19.988C272.53 20.168 272.704 20.456 272.92 20.852L274.378 23.462C274.63 23.918 274.858 24.284 275.062 24.56C275.266 24.824 275.458 25.016 275.638 25.136C275.83 25.256 276.034 25.34 276.25 25.388C276.478 25.424 276.742 25.442 277.042 25.442C277.114 25.442 277.168 25.466 277.204 25.514C277.252 25.562 277.276 25.616 277.276 25.676C277.276 25.724 277.258 25.772 277.222 25.82C277.186 25.868 277.15 25.904 277.114 25.928C276.982 26.024 276.754 26.114 276.43 26.198C276.106 26.282 275.764 26.324 275.404 26.324ZM277.616 31.112C277.352 31.112 277.106 31.034 276.878 30.878C276.65 30.734 276.536 30.524 276.536 30.248C276.536 30.02 276.59 29.816 276.698 29.636C276.806 29.456 276.968 29.366 277.184 29.366C277.34 29.366 277.49 29.384 277.634 29.42C277.79 29.468 277.928 29.492 278.048 29.492C278.168 29.48 278.258 29.45 278.318 29.402C278.378 29.366 278.438 29.294 278.498 29.186C278.618 28.994 278.744 28.766 278.876 28.502C279.02 28.25 279.17 27.956 279.326 27.62C279.482 27.284 279.644 26.906 279.812 26.486C279.884 26.306 279.92 26.114 279.92 25.91C279.92 25.79 279.908 25.676 279.884 25.568C279.86 25.46 279.824 25.352 279.776 25.244L277.652 20.06C277.556 19.832 277.442 19.634 277.31 19.466C277.178 19.298 277.01 19.184 276.806 19.124C276.71 19.076 276.62 19.028 276.536 18.98C276.464 18.932 276.428 18.86 276.428 18.764C276.428 18.692 276.476 18.65 276.572 18.638C276.668 18.614 276.746 18.602 276.806 18.602C277.07 18.602 277.274 18.608 277.418 18.62C277.562 18.632 277.694 18.644 277.814 18.656C277.934 18.668 278.09 18.674 278.282 18.674C278.51 18.674 278.69 18.668 278.822 18.656C278.954 18.644 279.092 18.632 279.236 18.62C279.392 18.608 279.596 18.602 279.848 18.602C279.932 18.602 280.016 18.62 280.1 18.656C280.184 18.68 280.226 18.728 280.226 18.8C280.226 18.896 280.172 18.98 280.064 19.052C279.956 19.112 279.854 19.16 279.758 19.196C279.626 19.232 279.524 19.298 279.452 19.394C279.392 19.478 279.362 19.616 279.362 19.808C279.362 19.892 279.38 19.988 279.416 20.096C279.452 20.204 279.494 20.312 279.542 20.42L280.874 23.714C280.898 23.774 280.928 23.804 280.964 23.804C280.988 23.804 281.012 23.774 281.036 23.714L282.17 20.6C282.206 20.516 282.236 20.408 282.26 20.276C282.284 20.132 282.296 20.012 282.296 19.916C282.296 19.7 282.254 19.544 282.17 19.448C282.086 19.34 281.99 19.262 281.882 19.214C281.786 19.166 281.678 19.112 281.558 19.052C281.45 18.98 281.396 18.896 281.396 18.8C281.396 18.728 281.438 18.68 281.522 18.656C281.618 18.62 281.702 18.602 281.774 18.602C281.99 18.602 282.188 18.614 282.368 18.638C282.548 18.662 282.776 18.674 283.052 18.674C283.244 18.674 283.394 18.668 283.502 18.656C283.61 18.644 283.712 18.632 283.808 18.62C283.904 18.608 284.03 18.602 284.186 18.602C284.246 18.602 284.324 18.614 284.42 18.638C284.516 18.65 284.564 18.692 284.564 18.764C284.564 18.86 284.522 18.932 284.438 18.98C284.366 19.028 284.282 19.076 284.186 19.124C283.994 19.184 283.796 19.322 283.592 19.538C283.4 19.754 283.244 20.006 283.124 20.294L280.586 26.342C280.55 26.45 280.472 26.642 280.352 26.918C280.244 27.194 280.112 27.518 279.956 27.89C279.8 28.262 279.632 28.652 279.452 29.06C279.284 29.48 279.116 29.882 278.948 30.266C278.828 30.542 278.648 30.752 278.408 30.896C278.18 31.04 277.916 31.112 277.616 31.112ZM288.851 26.27C288.023 26.27 287.339 26.054 286.799 25.622C286.271 25.19 285.875 24.614 285.611 23.894C285.347 23.162 285.209 22.358 285.197 21.482C285.197 20.21 285.347 19.064 285.647 18.044C285.947 17.024 286.421 16.178 287.069 15.506C287.729 14.834 288.581 14.402 289.625 14.21L290.525 14.048C290.885 13.988 291.167 13.922 291.371 13.85C291.587 13.778 291.761 13.706 291.893 13.634C292.025 13.55 292.151 13.46 292.271 13.364C292.283 13.352 292.307 13.346 292.343 13.346C292.391 13.346 292.421 13.376 292.433 13.436C292.457 13.484 292.469 13.526 292.469 13.562C292.469 13.85 292.409 14.15 292.289 14.462C292.169 14.762 291.971 15.026 291.695 15.254C291.431 15.482 291.077 15.638 290.633 15.722L288.455 16.118C288.011 16.202 287.639 16.352 287.339 16.568C287.051 16.784 286.841 17.096 286.709 17.504C286.577 17.912 286.529 18.452 286.565 19.124C286.577 19.22 286.613 19.274 286.673 19.286C286.745 19.298 286.823 19.274 286.907 19.214C287.147 19.01 287.447 18.836 287.807 18.692C288.179 18.548 288.641 18.476 289.193 18.476C289.949 18.476 290.579 18.656 291.083 19.016C291.587 19.364 291.965 19.814 292.217 20.366C292.469 20.918 292.595 21.5 292.595 22.112C292.595 22.82 292.457 23.492 292.181 24.128C291.905 24.764 291.491 25.28 290.939 25.676C290.387 26.072 289.691 26.27 288.851 26.27ZM288.977 25.604C289.445 25.604 289.805 25.472 290.057 25.208C290.321 24.932 290.501 24.554 290.597 24.074C290.705 23.594 290.759 23.042 290.759 22.418C290.759 21.866 290.681 21.338 290.525 20.834C290.369 20.33 290.147 19.916 289.859 19.592C289.571 19.268 289.229 19.106 288.833 19.106C288.545 19.106 288.269 19.166 288.005 19.286C287.753 19.394 287.549 19.562 287.393 19.79C287.225 20.03 287.111 20.33 287.051 20.69C287.003 21.05 286.979 21.476 286.979 21.968C286.991 22.64 287.075 23.252 287.231 23.804C287.387 24.356 287.615 24.794 287.915 25.118C288.215 25.442 288.569 25.604 288.977 25.604ZM293.97 26.054C293.898 26.054 293.82 26.042 293.736 26.018C293.652 25.994 293.61 25.94 293.61 25.856C293.61 25.76 293.652 25.688 293.736 25.64C293.832 25.592 293.928 25.55 294.024 25.514C294.204 25.454 294.366 25.388 294.51 25.316C294.666 25.232 294.744 25.07 294.744 24.83V19.844C294.744 19.604 294.672 19.442 294.528 19.358C294.396 19.262 294.24 19.19 294.06 19.142C293.964 19.106 293.868 19.064 293.772 19.016C293.688 18.968 293.646 18.896 293.646 18.8C293.646 18.728 293.688 18.68 293.772 18.656C293.868 18.632 293.946 18.62 294.006 18.62C294.246 18.62 294.444 18.626 294.6 18.638C294.768 18.65 294.924 18.668 295.068 18.692C295.212 18.704 295.386 18.71 295.59 18.71C295.806 18.71 295.98 18.704 296.112 18.692C296.244 18.668 296.382 18.65 296.526 18.638C296.682 18.626 296.88 18.62 297.12 18.62C297.18 18.62 297.252 18.632 297.336 18.656C297.42 18.68 297.462 18.728 297.462 18.8C297.462 18.884 297.42 18.956 297.336 19.016C297.252 19.064 297.162 19.106 297.066 19.142C296.886 19.202 296.73 19.274 296.598 19.358C296.466 19.442 296.4 19.604 296.4 19.844V23.246C296.4 23.318 296.424 23.366 296.472 23.39C296.52 23.414 296.562 23.408 296.598 23.372L299.712 20.042C299.748 19.994 299.772 19.958 299.784 19.934C299.808 19.91 299.82 19.868 299.82 19.808C299.82 19.568 299.76 19.412 299.64 19.34C299.532 19.256 299.388 19.19 299.208 19.142C299.112 19.106 299.022 19.064 298.938 19.016C298.854 18.968 298.812 18.896 298.812 18.8C298.812 18.728 298.848 18.68 298.92 18.656C299.004 18.632 299.082 18.62 299.154 18.62C299.394 18.62 299.586 18.626 299.73 18.638C299.886 18.65 300.03 18.668 300.162 18.692C300.306 18.704 300.48 18.71 300.684 18.71C300.9 18.71 301.074 18.704 301.206 18.692C301.35 18.668 301.5 18.65 301.656 18.638C301.812 18.626 302.01 18.62 302.25 18.62C302.322 18.62 302.394 18.632 302.466 18.656C302.55 18.68 302.592 18.728 302.592 18.8C302.592 18.896 302.55 18.968 302.466 19.016C302.382 19.064 302.292 19.106 302.196 19.142C302.016 19.19 301.848 19.262 301.692 19.358C301.548 19.442 301.476 19.604 301.476 19.844V24.83C301.476 25.07 301.554 25.232 301.71 25.316C301.878 25.388 302.052 25.454 302.232 25.514C302.328 25.55 302.418 25.592 302.502 25.64C302.586 25.688 302.628 25.76 302.628 25.856C302.628 25.94 302.586 25.994 302.502 26.018C302.418 26.042 302.346 26.054 302.286 26.054C302.046 26.054 301.842 26.042 301.674 26.018C301.518 26.006 301.362 25.994 301.206 25.982C301.062 25.97 300.882 25.964 300.666 25.964C300.462 25.964 300.282 25.97 300.126 25.982C299.982 25.994 299.826 26.006 299.658 26.018C299.502 26.042 299.304 26.054 299.064 26.054C299.004 26.054 298.932 26.042 298.848 26.018C298.764 25.994 298.722 25.94 298.722 25.856C298.722 25.76 298.764 25.688 298.848 25.64C298.932 25.592 299.022 25.55 299.118 25.514C299.298 25.454 299.46 25.388 299.604 25.316C299.748 25.232 299.82 25.07 299.82 24.83V21.122C299.82 21.062 299.808 21.026 299.784 21.014C299.772 20.99 299.754 20.996 299.73 21.032L296.508 24.524C296.436 24.596 296.4 24.698 296.4 24.83C296.4 25.082 296.478 25.244 296.634 25.316C296.79 25.388 296.958 25.454 297.138 25.514C297.234 25.55 297.324 25.592 297.408 25.64C297.492 25.688 297.534 25.76 297.534 25.856C297.534 25.928 297.492 25.976 297.408 26C297.324 26.036 297.252 26.054 297.192 26.054C296.952 26.054 296.748 26.042 296.58 26.018C296.424 26.006 296.274 25.994 296.13 25.982C295.986 25.97 295.806 25.964 295.59 25.964C295.386 25.964 295.206 25.97 295.05 25.982C294.894 25.994 294.732 26.006 294.564 26.018C294.408 26.042 294.21 26.054 293.97 26.054ZM310.869 26.252C310.521 26.252 310.221 26.204 309.969 26.108C309.729 26.012 309.507 25.862 309.303 25.658C309.099 25.454 308.895 25.202 308.691 24.902C308.499 24.59 308.283 24.224 308.043 23.804C307.851 23.492 307.689 23.228 307.557 23.012C307.425 22.796 307.281 22.628 307.125 22.508C306.969 22.376 306.747 22.31 306.459 22.31C306.339 22.31 306.279 22.364 306.279 22.472V24.848C306.279 25.076 306.357 25.232 306.513 25.316C306.681 25.388 306.879 25.46 307.107 25.532C307.203 25.568 307.287 25.61 307.359 25.658C307.443 25.694 307.485 25.76 307.485 25.856C307.485 25.94 307.437 25.994 307.341 26.018C307.245 26.042 307.173 26.054 307.125 26.054C306.897 26.054 306.693 26.042 306.513 26.018C306.345 26.006 306.183 25.994 306.027 25.982C305.871 25.97 305.685 25.964 305.469 25.964C305.265 25.964 305.085 25.97 304.929 25.982C304.773 25.994 304.611 26.006 304.443 26.018C304.287 26.042 304.089 26.054 303.849 26.054C303.789 26.054 303.711 26.042 303.615 26.018C303.519 25.994 303.471 25.946 303.471 25.874C303.471 25.778 303.507 25.706 303.579 25.658C303.663 25.61 303.753 25.568 303.849 25.532C304.077 25.46 304.269 25.394 304.425 25.334C304.581 25.274 304.659 25.124 304.659 24.884V19.916C304.659 19.676 304.593 19.496 304.461 19.376C304.329 19.256 304.149 19.166 303.921 19.106C303.825 19.082 303.735 19.046 303.651 18.998C303.579 18.938 303.543 18.866 303.543 18.782C303.543 18.686 303.591 18.632 303.687 18.62C303.783 18.596 303.861 18.584 303.921 18.584C304.161 18.584 304.353 18.59 304.497 18.602C304.641 18.614 304.785 18.632 304.929 18.656C305.073 18.668 305.247 18.674 305.451 18.674C305.667 18.674 305.841 18.668 305.973 18.656C306.117 18.644 306.267 18.632 306.423 18.62C306.591 18.608 306.789 18.602 307.017 18.602C307.077 18.602 307.155 18.608 307.251 18.62C307.347 18.632 307.395 18.686 307.395 18.782C307.395 18.866 307.353 18.932 307.269 18.98C307.185 19.028 307.095 19.07 306.999 19.106C306.771 19.178 306.591 19.28 306.459 19.412C306.339 19.532 306.279 19.712 306.279 19.952V21.626C306.279 21.686 306.297 21.734 306.333 21.77C306.381 21.794 306.435 21.806 306.495 21.806C307.071 21.806 307.509 21.668 307.809 21.392C308.121 21.104 308.379 20.78 308.583 20.42C308.727 20.18 308.859 19.94 308.979 19.7C309.099 19.448 309.231 19.22 309.375 19.016C309.519 18.812 309.693 18.65 309.897 18.53C310.113 18.41 310.377 18.35 310.689 18.35C311.001 18.35 311.235 18.434 311.391 18.602C311.559 18.77 311.643 18.968 311.643 19.196C311.643 19.424 311.589 19.61 311.481 19.754C311.373 19.886 311.235 19.952 311.067 19.952C310.923 19.952 310.755 19.91 310.563 19.826C310.383 19.73 310.227 19.682 310.095 19.682C309.939 19.682 309.819 19.718 309.735 19.79C309.663 19.862 309.579 19.97 309.483 20.114C309.423 20.21 309.345 20.354 309.249 20.546C309.153 20.726 309.045 20.912 308.925 21.104C308.817 21.284 308.691 21.434 308.547 21.554C308.499 21.602 308.481 21.638 308.493 21.662C308.505 21.674 308.523 21.704 308.547 21.752C308.763 22.1 308.973 22.454 309.177 22.814C309.381 23.174 309.585 23.522 309.789 23.858C310.041 24.242 310.305 24.578 310.581 24.866C310.857 25.154 311.151 25.352 311.463 25.46C311.607 25.496 311.721 25.544 311.805 25.604C311.889 25.664 311.931 25.748 311.931 25.856C311.931 25.952 311.829 26.042 311.625 26.126C311.433 26.21 311.181 26.252 310.869 26.252ZM323.699 26.054C323.627 26.054 323.483 26.048 323.267 26.036C323.051 26.036 322.799 26.03 322.511 26.018C322.235 26.006 321.947 25.994 321.647 25.982C321.347 25.97 321.071 25.964 320.819 25.964C320.579 25.964 320.261 25.97 319.865 25.982C319.481 25.994 319.085 26 318.677 26C318.281 26.012 317.933 26.018 317.633 26.018C317.345 26.03 317.159 26.036 317.075 26.036C317.039 26.036 316.967 26 316.859 25.928C316.763 25.856 316.715 25.79 316.715 25.73C316.715 25.658 316.733 25.604 316.769 25.568C316.805 25.532 316.847 25.49 316.895 25.442L319.811 22.346C320.423 21.698 320.909 21.002 321.269 20.258C321.641 19.514 321.827 18.734 321.827 17.918C321.827 17.33 321.659 16.862 321.323 16.514C320.987 16.154 320.567 15.974 320.063 15.974C319.595 15.974 319.157 16.106 318.749 16.37C318.353 16.622 318.029 16.94 317.777 17.324C317.729 17.396 317.669 17.462 317.597 17.522C317.525 17.582 317.447 17.612 317.363 17.612C317.303 17.612 317.243 17.564 317.183 17.468C317.135 17.372 317.111 17.252 317.111 17.108C317.111 16.952 317.201 16.742 317.381 16.478C317.561 16.202 317.813 15.926 318.137 15.65C318.461 15.374 318.845 15.14 319.289 14.948C319.733 14.756 320.213 14.66 320.729 14.66C321.329 14.66 321.845 14.792 322.277 15.056C322.709 15.308 323.039 15.662 323.267 16.118C323.495 16.562 323.609 17.072 323.609 17.648C323.609 17.972 323.543 18.326 323.411 18.71C323.291 19.094 323.129 19.466 322.925 19.826C322.721 20.186 322.493 20.516 322.241 20.816C322.085 21.008 321.857 21.254 321.557 21.554C321.269 21.854 320.957 22.172 320.621 22.508C320.297 22.832 319.985 23.144 319.685 23.444C319.385 23.732 319.139 23.972 318.947 24.164C318.767 24.356 318.677 24.464 318.677 24.488C318.677 24.536 318.761 24.572 318.929 24.596C319.145 24.62 319.385 24.638 319.649 24.65C319.925 24.662 320.219 24.668 320.531 24.668C320.855 24.668 321.173 24.662 321.485 24.65C321.809 24.638 322.121 24.62 322.421 24.596C322.745 24.572 323.003 24.536 323.195 24.488C323.387 24.44 323.549 24.35 323.681 24.218C323.825 24.086 323.963 23.9 324.095 23.66C324.143 23.588 324.209 23.504 324.293 23.408C324.377 23.312 324.467 23.264 324.563 23.264C324.635 23.264 324.683 23.294 324.707 23.354C324.731 23.414 324.737 23.474 324.725 23.534C324.689 23.678 324.629 23.87 324.545 24.11C324.461 24.35 324.377 24.608 324.293 24.884C324.209 25.148 324.143 25.4 324.095 25.64C324.071 25.808 324.011 25.922 323.915 25.982C323.831 26.03 323.759 26.054 323.699 26.054Z" fill="black"/>
</svg>
